<svg xmlns="http://www.w3.org/2000/svg" xmlns:xlink="http://www.w3.org/1999/xlink" data-v-0dd9719b="" version="1.0" preserveAspectRatio="xMidYMid meet" color-interpolation-filters="sRGB" style="margin: auto;" viewBox="102.5 94.29 135 61.42">
  <g data-v-0dd9719b="" fill="#000000" class="basesvg" transform="translate(102.5,94.29200172424316)">
    <g data-gra="path-name" fill-rule="" class="tp-name" transform="translate(0,0)">
      <g transform="scale(1)">
        <g>
          <path d="M34.26-46.02L49.59-46.02 34.13 0 15.47 0 0-46.02 15.34-46.02 24.83-14.37 34.26-46.02ZM83.53-34.52L67.28-34.52 67.28-28.86 81.58-28.86 81.58-18 67.28-18 67.28-11.51 83.53-11.51 83.53 0 52.84 0 52.84-46.02 83.53-46.02 83.53-34.52ZM111.41 0.46Q104.91 0.46 99.48-2.6 94.06-5.66 90.87-11.05 87.69-16.45 87.69-23.21L87.69-23.21Q87.69-29.96 90.87-35.36 94.06-40.76 99.48-43.78 104.91-46.8 111.41-46.8L111.41-46.8Q117.91-46.8 123.31-43.78 128.7-40.76 131.85-35.36 135-29.96 135-23.21L135-23.21Q135-16.45 131.85-11.05 128.7-5.66 123.27-2.6 117.84 0.46 111.41 0.46L111.41 0.46ZM111.41-13Q115.7-13 118.04-15.76 120.38-18.53 120.38-23.21L120.38-23.21Q120.38-27.95 118.04-30.71 115.7-33.48 111.41-33.48L111.41-33.48Q107.06-33.48 104.72-30.71 102.38-27.95 102.38-23.21L102.38-23.21Q102.38-18.53 104.72-15.76 107.06-13 111.41-13L111.41-13Z" transform="translate(0, 46.79999923706055)"></path>
        </g>
      </g>
    </g>
    <g data-gra="path-slogan" fill-rule="" class="tp-slogan" fill="#000000" transform="translate(5,53.2599983215332)">
      <rect x="0" height="1" y="3.580000400543213" width="96.55499839782715"></rect>
      <rect height="1" y="3.580000400543213" width="28.44500160217285" x="96.55499839782715"></rect>
     
    </g>
  </g>
  <defs v-gra="od"></defs>
</svg>