<svg width="567" height="243" viewBox="0 0 567 243" fill="none" xmlns="http://www.w3.org/2000/svg">
<style>
    /* Default fill color */
    .color {
      fill: white;
    }
    /* Dark mode */
    @media (prefers-color-scheme: dark) {
      .dark-fill {
        fill: #1A1A1A;
      }
    }
  </style>
<path class="color" d="M69.632 239.682L0 58.9458H43.008L96 205.122H78.336L132.096 58.9458H174.592L104.192 239.682H69.632Z" fill="#FFFFFF"/>
<path class="color" d="M195.812 239.682V58.9458H236.004V239.682H195.812ZM226.532 239.682V204.866H325.604V239.682H226.532ZM226.532 164.162V130.626H316.644V164.162H226.532ZM226.532 93.5058V58.9458H324.324V93.5058H226.532Z" fill="#FFFFFF"/>
<path class="color" fill-rule="evenodd" clip-rule="evenodd" d="M441.627 92.7183L435.029 68.0965L435.031 68.0962L433.239 61.4086C432.782 59.5138 432.354 57.6931 431.953 55.9438C419.833 56.3699 408.545 58.7358 398.088 63.0417C386.653 67.6497 376.669 74.2203 368.136 82.7537C359.603 91.1163 352.947 100.93 348.168 112.194C343.389 123.458 341 135.746 341 149.058C341 162.199 343.389 174.487 348.168 185.922C352.947 197.186 359.688 207.084 368.392 215.618C377.096 224.151 387.165 230.807 398.6 235.586C410.205 240.364 422.835 242.754 436.488 242.754C449.8 242.754 462.173 240.364 473.608 235.586C485.213 230.807 495.283 224.236 503.816 215.874C512.349 207.34 519.005 197.442 523.784 186.178C528.563 174.743 530.952 162.455 530.952 149.314C530.952 137.255 528.991 126.036 525.07 115.658L519.838 117.06L519.838 117.061L485.943 126.143C488.472 132.938 489.736 140.576 489.736 149.058C489.736 160.322 487.517 170.306 483.08 179.01C478.643 187.543 472.328 194.199 464.136 198.978C456.115 203.756 446.728 206.146 435.976 206.146C427.955 206.146 420.616 204.78 413.96 202.05C407.304 199.319 401.587 195.479 396.808 190.53C392.2 185.41 388.616 179.351 386.056 172.354C383.496 165.356 382.216 157.591 382.216 149.058C382.216 137.623 384.435 127.724 388.872 119.362C393.309 110.828 399.539 104.258 407.56 99.6497C415.752 94.871 425.224 92.4817 435.976 92.4817C437.904 92.4817 439.788 92.5605 441.627 92.7183Z" fill="#FFFFFF"/>
<path d="M443.385 59.7344L513.207 41.0256C530.735 36.3289 548.752 46.7309 553.449 64.259C558.145 81.7871 547.744 99.8038 530.215 104.5L460.393 123.209L443.385 59.7344Z" fill="#F63D68"/>
<path d="M460.393 123.209L441.686 53.3875C436.989 35.8594 447.391 17.8427 464.919 13.1461C482.447 8.44944 500.464 18.8514 505.16 36.3795L523.869 106.202L460.393 123.209Z" fill="#F63D68"/>
</svg>
