<svg xmlns="http://www.w3.org/2000/svg" xmlns:xlink="http://www.w3.org/1999/xlink" data-v-0dd9719b="" version="1.0" preserveAspectRatio="xMidYMid meet" color-interpolation-filters="sRGB" style="margin: auto;" viewBox="102.5 94.29 135 61.42">
  <g data-v-0dd9719b="" fill="#ffffff" class="basesvg" transform="translate(102.5,94.29200172424316)">
    <g data-gra="path-name" fill-rule="" class="tp-name" transform="translate(0,0)">
      <g transform="scale(1)">
        <g>
          <path d="M34.26-46.02L49.59-46.02 34.13 0 15.47 0 0-46.02 15.34-46.02 24.83-14.37 34.26-46.02ZM83.53-34.52L67.28-34.52 67.28-28.86 81.58-28.86 81.58-18 67.28-18 67.28-11.51 83.53-11.51 83.53 0 52.84 0 52.84-46.02 83.53-46.02 83.53-34.52ZM111.41 0.46Q104.91 0.46 99.48-2.6 94.06-5.66 90.87-11.05 87.69-16.45 87.69-23.21L87.69-23.21Q87.69-29.96 90.87-35.36 94.06-40.76 99.48-43.78 104.91-46.8 111.41-46.8L111.41-46.8Q117.91-46.8 123.31-43.78 128.7-40.76 131.85-35.36 135-29.96 135-23.21L135-23.21Q135-16.45 131.85-11.05 128.7-5.66 123.27-2.6 117.84 0.46 111.41 0.46L111.41 0.46ZM111.41-13Q115.7-13 118.04-15.76 120.38-18.53 120.38-23.21L120.38-23.21Q120.38-27.95 118.04-30.71 115.7-33.48 111.41-33.48L111.41-33.48Q107.06-33.48 104.72-30.71 102.38-27.95 102.38-23.21L102.38-23.21Q102.38-18.53 104.72-15.76 107.06-13 111.41-13L111.41-13Z" transform="translate(0, 46.79999923706055)"></path>
        </g>
      </g>
    </g>
    <g data-gra="path-slogan" fill-rule="" class="tp-slogan" fill="#ffffff" transform="translate(5,53.2599983215332)">
      <rect x="0" height="1" y="3.580000400543213" width="28.44500160217285"></rect>
      <rect height="1" y="3.580000400543213" width="28.44500160217285" x="96.55499839782715"></rect>
      <g transform="translate(31.44500160217285,0)">
        <g transform="scale(1)">
          <path d="M1.08-7.87L1.08 0L3.10 0C3.69 0 4.21-0.09 4.67-0.27C5.12-0.45 5.51-0.71 5.82-1.05C6.13-1.39 6.37-1.81 6.53-2.30C6.69-2.79 6.77-3.35 6.77-3.97C6.77-5.23 6.45-6.19 5.82-6.86C5.19-7.54 4.26-7.87 3.05-7.87ZM2.98-0.82L2.08-0.82L2.08-7.06L2.98-7.06C3.90-7.06 4.59-6.79 5.05-6.26C5.51-5.74 5.74-4.97 5.74-3.97C5.74-2.97 5.51-2.20 5.05-1.64C4.59-1.09 3.90-0.82 2.98-0.82ZM11.69-3.20L9.32-3.20L9.70-4.40C9.84-4.84 9.98-5.28 10.10-5.72C10.23-6.15 10.36-6.60 10.48-7.06L10.52-7.06C10.65-6.60 10.78-6.15 10.91-5.72C11.04-5.28 11.17-4.84 11.32-4.40ZM11.94-2.40L12.68 0L13.75 0L11.09-7.87L9.96-7.87L7.30 0L8.32 0L9.07-2.40ZM14.89-1.72L14.29-1.02C14.64-0.66 15.04-0.38 15.52-0.17C15.99 0.04 16.50 0.14 17.05 0.14C17.47 0.14 17.84 0.09 18.17-0.03C18.50-0.15 18.78-0.31 19.01-0.51C19.24-0.71 19.42-0.95 19.54-1.22C19.67-1.50 19.73-1.79 19.73-2.10C19.73-2.39 19.69-2.64 19.60-2.86C19.52-3.08 19.40-3.27 19.26-3.44C19.12-3.60 18.94-3.75 18.74-3.87C18.54-3.99 18.33-4.10 18.11-4.20L16.99-4.68C16.83-4.74 16.68-4.81 16.52-4.89C16.37-4.97 16.23-5.05 16.10-5.15C15.98-5.25 15.87-5.37 15.80-5.50C15.72-5.63 15.68-5.80 15.68-5.99C15.68-6.35 15.82-6.63 16.09-6.83C16.35-7.04 16.71-7.14 17.15-7.14C17.52-7.14 17.85-7.07 18.14-6.94C18.43-6.81 18.70-6.63 18.94-6.40L19.48-7.04C19.20-7.33 18.86-7.57 18.46-7.75C18.06-7.93 17.62-8.02 17.15-8.02C16.79-8.02 16.46-7.96 16.16-7.86C15.86-7.76 15.60-7.61 15.38-7.42C15.16-7.23 14.99-7.01 14.86-6.76C14.74-6.50 14.68-6.22 14.68-5.93C14.68-5.64 14.72-5.39 14.82-5.17C14.92-4.95 15.04-4.76 15.19-4.60C15.34-4.44 15.52-4.30 15.71-4.19C15.90-4.08 16.09-3.98 16.27-3.90L17.40-3.41C17.58-3.32 17.76-3.24 17.92-3.16C18.08-3.08 18.21-2.99 18.33-2.89C18.45-2.79 18.54-2.67 18.61-2.53C18.67-2.39 18.71-2.22 18.71-2.02C18.71-1.63 18.56-1.32 18.28-1.09C17.99-0.85 17.58-0.73 17.06-0.73C16.66-0.73 16.26-0.82 15.88-1.00C15.50-1.18 15.17-1.42 14.89-1.72ZM21.28-7.87L21.28 0L22.27 0L22.27-3.71L25.93-3.71L25.93 0L26.94 0L26.94-7.87L25.93-7.87L25.93-4.57L22.27-4.57L22.27-7.87ZM29.10-7.87L29.10 0L31.61 0C32.05 0 32.45-0.05 32.82-0.14C33.19-0.24 33.50-0.38 33.77-0.58C34.03-0.77 34.24-1.01 34.38-1.30C34.52-1.58 34.60-1.92 34.60-2.30C34.60-2.85 34.44-3.28 34.12-3.59C33.80-3.90 33.35-4.10 32.77-4.19L32.77-4.24C33.24-4.36 33.58-4.57 33.80-4.89C34.03-5.21 34.14-5.56 34.14-5.95C34.14-6.30 34.07-6.59 33.94-6.83C33.81-7.08 33.63-7.28 33.39-7.43C33.15-7.58 32.87-7.69 32.54-7.76C32.21-7.84 31.84-7.87 31.44-7.87ZM31.26-4.51L30.10-4.51L30.10-7.08L31.31-7.08C31.92-7.08 32.39-6.99 32.69-6.80C33.00-6.61 33.16-6.30 33.16-5.87C33.16-5.43 33.01-5.09 32.72-4.86C32.43-4.63 31.94-4.51 31.26-4.51ZM31.46-0.79L30.10-0.79L30.10-3.77L31.46-3.77C32.16-3.77 32.69-3.65 33.06-3.43C33.43-3.20 33.61-2.84 33.61-2.35C33.61-1.82 33.42-1.42 33.05-1.17C32.67-0.92 32.14-0.79 31.46-0.79ZM39.06 0.14C39.56 0.14 40.01 0.05 40.42-0.14C40.83-0.34 41.19-0.61 41.49-0.97C41.79-1.32 42.02-1.75 42.19-2.26C42.35-2.77 42.43-3.34 42.43-3.97C42.43-4.60 42.35-5.16 42.19-5.66C42.02-6.16 41.79-6.58 41.49-6.93C41.19-7.28 40.83-7.55 40.42-7.73C40.01-7.92 39.56-8.02 39.06-8.02C38.56-8.02 38.11-7.92 37.70-7.74C37.29-7.56 36.93-7.29 36.64-6.94C36.34-6.59 36.11-6.17 35.95-5.67C35.78-5.17 35.70-4.60 35.70-3.97C35.70-3.34 35.78-2.77 35.95-2.26C36.11-1.75 36.34-1.32 36.64-0.97C36.93-0.61 37.29-0.34 37.70-0.14C38.11 0.05 38.56 0.14 39.06 0.14ZM39.06-0.73C38.71-0.73 38.39-0.81 38.11-0.96C37.82-1.11 37.58-1.33 37.37-1.61C37.17-1.90 37.01-2.24 36.90-2.63C36.79-3.03 36.73-3.48 36.73-3.97C36.73-4.46 36.79-4.90 36.90-5.29C37.01-5.68 37.17-6.02 37.37-6.29C37.58-6.56 37.82-6.77 38.11-6.92C38.39-7.07 38.71-7.14 39.06-7.14C39.41-7.14 39.73-7.07 40.01-6.92C40.30-6.77 40.54-6.56 40.75-6.29C40.95-6.02 41.11-5.68 41.22-5.29C41.33-4.90 41.39-4.46 41.39-3.97C41.39-3.48 41.33-3.03 41.22-2.63C41.11-2.24 40.95-1.90 40.75-1.61C40.54-1.33 40.30-1.11 40.01-0.96C39.73-0.81 39.41-0.73 39.06-0.73ZM47.35-3.20L44.99-3.20L45.36-4.40C45.50-4.84 45.64-5.28 45.77-5.72C45.90-6.15 46.02-6.60 46.14-7.06L46.19-7.06C46.32-6.60 46.44-6.15 46.57-5.72C46.70-5.28 46.84-4.84 46.98-4.40ZM47.60-2.40L48.35 0L49.42 0L46.75-7.87L45.62-7.87L42.96 0L43.98 0L44.74-2.40ZM51.53-4.14L51.53-7.07L52.85-7.07C53.46-7.07 53.94-6.96 54.26-6.76C54.59-6.55 54.76-6.18 54.76-5.66C54.76-5.15 54.59-4.77 54.26-4.52C53.94-4.27 53.46-4.14 52.85-4.14ZM54.85 0L55.98 0L53.99-3.43C54.52-3.57 54.95-3.82 55.27-4.19C55.59-4.56 55.75-5.05 55.75-5.66C55.75-6.07 55.68-6.42 55.55-6.70C55.41-6.98 55.22-7.20 54.98-7.38C54.73-7.56 54.44-7.68 54.10-7.76C53.76-7.83 53.39-7.87 52.99-7.87L50.53-7.87L50.53 0L51.53 0L51.53-3.32L52.96-3.32ZM57.50-7.87L57.50 0L59.52 0C60.11 0 60.64-0.09 61.09-0.27C61.55-0.45 61.93-0.71 62.24-1.05C62.56-1.39 62.79-1.81 62.95-2.30C63.11-2.79 63.19-3.35 63.19-3.97C63.19-5.23 62.88-6.19 62.24-6.86C61.61-7.54 60.69-7.87 59.47-7.87ZM59.40-0.82L58.50-0.82L58.50-7.06L59.40-7.06C60.32-7.06 61.01-6.79 61.47-6.26C61.93-5.74 62.16-4.97 62.16-3.97C62.16-2.97 61.93-2.20 61.47-1.64C61.01-1.09 60.32-0.82 59.40-0.82Z" transform="translate(-1.08, 8.016)"></path>
        </g>
      </g>
    </g>
  </g>
  <defs v-gra="od"></defs>
</svg>