<svg width="646" height="136" viewBox="0 0 646 136" fill="none" xmlns="http://www.w3.org/2000/svg">
<path d="M631.95 8.94759C632.05 8.26187 632.088 7.70996 632.207 7.18429C632.429 5.86175 632.788 4.56584 633.278 3.31729C635.022 -0.265851 639.111 -0.720428 641.753 2.28697C643.037 3.71551 643.94 5.44453 644.379 7.31433C645.698 13.0367 645.757 18.9776 644.55 24.7249C644.457 25.2223 644.315 25.709 644.124 26.1777C643.9 26.7947 643.45 27.3039 642.866 27.6031C642.281 27.9024 641.605 27.9695 640.973 27.7909C640.415 27.668 639.868 27.4951 639.341 27.2743C636.249 25.9377 633.118 24.6669 630.072 23.2084C628.38 22.3338 626.753 21.3373 625.205 20.2268C623.738 19.1605 622.606 17.6993 621.938 16.0136C621.534 15.0965 621.376 14.0897 621.48 13.0928C621.584 12.0959 621.946 11.1435 622.531 10.3295C623.116 9.51548 623.903 8.86815 624.815 8.45151C625.726 8.03486 626.731 7.86331 627.729 7.95378C628.673 8.08924 629.606 8.29439 630.519 8.56758C630.969 8.61883 631.367 8.78396 631.95 8.94759Z" fill="#FF6E00"/>
<path d="M191.329 115.265C191.941 114.94 192.408 114.644 192.902 114.429C194.1 113.826 195.357 113.349 196.654 113.005C200.574 112.291 203.36 115.32 202.498 119.228C202.105 121.109 201.246 122.86 199.998 124.32C196.164 128.768 191.409 132.33 186.062 134.757C185.606 134.977 185.129 135.149 184.638 135.273C184.008 135.457 183.331 135.396 182.744 135.102C182.158 134.807 181.704 134.302 181.474 133.687C181.242 133.164 181.059 132.621 180.925 132.065C180.173 128.781 179.346 125.506 178.72 122.187C178.424 120.305 178.265 118.404 178.244 116.499C178.237 114.686 178.745 112.908 179.709 111.373C180.209 110.504 180.928 109.781 181.793 109.276C182.658 108.77 183.64 108.498 184.642 108.488C185.645 108.478 186.632 108.73 187.507 109.218C188.383 109.707 189.115 110.415 189.633 111.274C190.082 112.115 190.468 112.988 190.788 113.887C191.013 114.28 191.115 114.698 191.329 115.265Z" fill="#FF6E00"/>
<path d="M466.171 84.729C466.696 84.2775 467.087 83.8859 467.522 83.5679C468.559 82.7164 469.68 81.9747 470.869 81.3545C474.537 79.7972 477.92 82.1395 477.938 86.1423C477.968 88.0627 477.514 89.9598 476.617 91.6583C473.855 96.8405 469.998 101.36 465.314 104.902C464.917 105.216 464.49 105.49 464.039 105.718C463.464 106.036 462.791 106.125 462.153 105.967C461.516 105.809 460.962 105.415 460.603 104.866C460.263 104.406 459.964 103.917 459.711 103.404C458.257 100.366 456.73 97.3517 455.39 94.2516C454.688 92.4805 454.115 90.6606 453.677 88.8065C453.271 87.0395 453.376 85.1937 453.98 83.4842C454.277 82.527 454.819 81.664 455.552 80.9804C456.285 80.2968 457.184 79.8163 458.16 79.5864C459.135 79.3565 460.154 79.3851 461.115 79.6694C462.076 79.9538 462.946 80.484 463.64 81.2077C464.263 81.9297 464.831 82.6968 465.341 83.5028C465.647 83.8369 465.838 84.2225 466.171 84.729Z" fill="#36BFFA"/>
<path d="M325.216 72.729C324.69 72.2775 324.299 71.8859 323.864 71.5679C322.828 70.7164 321.706 69.9747 320.517 69.3545C316.849 67.7972 313.467 70.1395 313.449 74.1423C313.419 76.0627 313.873 77.9598 314.77 79.6583C317.532 84.8405 321.389 89.3596 326.073 92.902C326.469 93.2162 326.897 93.4896 327.348 93.7179C327.923 94.0359 328.596 94.1248 329.233 93.9667C329.87 93.8087 330.424 93.4154 330.784 92.8659C331.124 92.4064 331.423 91.9172 331.676 91.4043C333.13 88.3657 334.657 85.3517 335.996 82.2516C336.699 80.4805 337.271 78.6606 337.71 76.8065C338.115 75.0395 338.01 73.1937 337.407 71.4842C337.109 70.527 336.567 69.664 335.834 68.9804C335.101 68.2968 334.203 67.8163 333.227 67.5864C332.252 67.3565 331.233 67.3851 330.272 67.6694C329.311 67.9538 328.44 68.484 327.747 69.2077C327.124 69.9297 326.555 70.6968 326.046 71.5028C325.74 71.8369 325.549 72.2225 325.216 72.729Z" fill="#FBBB03"/>
<path d="M10.7321 77.2236C10.0675 77.0275 9.55047 76.8307 9.02303 76.7193C7.72875 76.3681 6.40156 76.1519 5.0627 76.0743C1.07858 76.1594 -1.04499 79.6835 0.581539 83.3409C1.34202 85.1046 2.53467 86.6482 4.04934 87.8292C8.69503 91.4214 14.0667 93.9598 19.7916 95.2682C20.2821 95.3921 20.784 95.466 21.2894 95.489C21.9437 95.5432 22.5943 95.3479 23.1105 94.9423C23.6268 94.5367 23.9705 93.9508 24.0726 93.3022C24.1946 92.7435 24.2662 92.1749 24.2864 91.6033C24.3659 88.2354 24.5212 84.8605 24.4707 81.4837C24.3844 79.5804 24.1598 77.6858 23.7988 75.8151C23.4437 74.0373 22.5904 72.3971 21.3384 71.0859C20.6745 70.335 19.8261 69.7704 18.8772 69.4478C17.9282 69.1252 16.9115 69.0558 15.9276 69.2464C14.9436 69.4371 14.0263 69.8812 13.2666 70.5349C12.5068 71.1886 11.9307 72.0292 11.5953 72.9737C11.3235 73.8878 11.1196 74.8208 10.9856 75.7649C10.8439 76.195 10.8276 76.6251 10.7321 77.2236Z" fill="#F63D68"/>
</svg>
